# xmcd
#
# Track frame offsets:
#  150
#  13782
#  24069
#  32746
#  42474
#  52604
#  64578
#  73336
#  82592
#  92407
#  103559
#  111036
#  120884
#  131866
#  142054
#  153247
#  164629
#  174272
#  186731
#  196911
#  205317
#  214494
#  225272
#  235909
#  245459
#  255289
#  264721
#  276737
#  288248
#  299182
#
# Disc length: 4132 seconds
#
# Revision: 0
# Processed by: cddbd v1.5.2PL0 Copyright (c) Steve Scherf et al.
# Submitted via: AltoMP3_Maker 3.0
#
DISCID=b410221e
DTITLE=Various Artist - High on the Hog, Vol. 2
DYEAR=1900
DGENRE=
TTITLE0=Charlie Lightfoot - Yes Baby
TTITLE1=Skip Graves - Indian Giver (with Your Love)
TTITLE2=Webster Dunn, Jr. - Black and White Shoes
TTITLE3=Ray Godfrey - Overall Song
TTITLE4=Jim Worley - Hard Hat
TTITLE5=George Beck - Used Car Blues No. 1
TTITLE6=Luke Simmons - Frazer River Valley Blues
TTITLE7=Dwight Todd - When the North Wind Blows
TTITLE8=Mike Miller - Don't Mess up My Hair
TTITLE9=Shorty Sullivan - Gotta Have Your Love Tonight
TTITLE10=Bill Loop - My Foolish Heart
TTITLE11=Big Pete Duker - Google Eye
TTITLE12=Hiram Griffis - John Henry
TTITLE13=Bluegrass Ervin - I Won't Cry Alone
TTITLE14=Sterling Blythe - Boss of Ghost Town
TTITLE15=Billy Barton - Blues in the Blue of the Night
TTITLE16=Dixie Rogers - Our First Date
TTITLE17=May Hawks - Meet Me down in Nashville
TTITLE18=Echo Valley Boys - Detour
TTITLE19=Flying W Wranglers - He's a Killer
TTITLE20=Dusty Williams - Don't Crawl Back to Me
TTITLE21=George Beck - Used Car Blues No. 2
TTITLE22=Jack Derrick - Black Mail
TTITLE23=Jess Willard - Every Dog Has His Day
TTITLE24=Luke Simmons - Throw a Little Love My Way
TTITLE25=Sandy Beeler - Carry Me Down
TTITLE26=Country Cowboys - Mississippi Boogie
TTITLE27=Slim Dossey - Don't Just Stand There
TTITLE28=Jimmy Key - I'll Get Out of Your Way
TTITLE29=Bobby Wayne - Albino
EXTD=
EXTT0=
EXTT1=
EXTT2=
EXTT3=
EXTT4=
EXTT5=
EXTT6=
EXTT7=
EXTT8=
EXTT9=
EXTT10=
EXTT11=
EXTT12=
EXTT13=
EXTT14=
EXTT15=
EXTT16=
EXTT17=
EXTT18=
EXTT19=
EXTT20=
EXTT21=
EXTT22=
EXTT23=
EXTT24=
EXTT25=
EXTT26=
EXTT27=
EXTT28=
EXTT29=
PLAYORDER=
